<?xml version="1.0" encoding="UTF-8"?>
<svg width="752pt" height="752pt" version="1.1" viewBox="0 0 752 752" xmlns="http://www.w3.org/2000/svg">
 <defs>
  <clipPath id="a">
   <path d="m139.21 236h473.58v280h-473.58z"/>
  </clipPath>
 </defs>
 <g clip-path="url(#a)">
  <path d="m381.26 388.28 215.7 125.82c5.0195 2.9297 11.465 1.2344 14.395-3.7891 0.9375-1.6094 1.4336-3.4375 1.4336-5.3008v-258.03c0-5.8125-4.7109-10.523-10.523-10.523-1.8633 0-3.6953 0.49219-5.3047 1.4336l-215.7 125.82v-116.73c0-5.8125-4.7109-10.523-10.523-10.523-1.8633 0-3.6914 0.49219-5.3008 1.4336l-221.17 129.01c-5.0195 2.9297-6.7148 9.375-3.7852 14.395 0.91406 1.5664 2.2188 2.8711 3.7852 3.7891l221.17 129.01c5.0195 2.9297 11.465 1.2344 14.391-3.7891 0.94141-1.6094 1.4336-3.4375 1.4336-5.3008z" fill-rule="evenodd"/>
 </g>
</svg>
