<?xml version="1.0" encoding="UTF-8"?>
<svg width="752pt" height="752pt" version="1.1" viewBox="0 0 752 752" xmlns="http://www.w3.org/2000/svg">
 <defs>
  <clipPath id="a">
   <path d="m139.21 236h473.58v280h-473.58z"/>
  </clipPath>
 </defs>
 <g clip-path="url(#a)">
  <path d="m370.74 363.72-215.7-125.82c-1.6094-0.94141-3.4414-1.4336-5.3047-1.4336-5.8125 0-10.523 4.7109-10.523 10.523v258.03c0 1.8633 0.49609 3.6914 1.4336 5.3008 2.9297 5.0234 9.3711 6.7188 14.395 3.7891l215.7-125.82v116.73c0 1.8633 0.49609 3.6914 1.4336 5.3008 2.9297 5.0234 9.375 6.7188 14.395 3.7891l221.16-129.01c1.5703-0.91797 2.875-2.2227 3.7891-3.7891 2.9297-5.0195 1.2344-11.465-3.7891-14.395l-221.16-129.01c-1.6094-0.94141-3.4414-1.4336-5.3047-1.4336-5.8125 0-10.523 4.7109-10.523 10.523z" fill-rule="evenodd"/>
 </g>
</svg>
